<?xml version="1.0" encoding="UTF-8" standalone="no"?>
<!-- Created with Inkscape (http://www.inkscape.org/) -->

<svg
   xmlns:dc="http://purl.org/dc/elements/1.1/"
   xmlns:cc="http://creativecommons.org/ns#"
   xmlns:rdf="http://www.w3.org/1999/02/22-rdf-syntax-ns#"
   xmlns:svg="http://www.w3.org/2000/svg"
   xmlns="http://www.w3.org/2000/svg"
   xmlns:sodipodi="http://sodipodi.sourceforge.net/DTD/sodipodi-0.dtd"
   xmlns:inkscape="http://www.inkscape.org/namespaces/inkscape"
   width="192.35126"
   height="29.497549"
   id="svg5937"
   version="1.1"
   inkscape:version="0.48.4 r9939"
   sodipodi:docname="ornament.svg">
  <defs
     id="defs5939" />
  <sodipodi:namedview
     id="base"
     pagecolor="#ffffff"
     bordercolor="#666666"
     borderopacity="1.0"
     inkscape:pageopacity="0.0"
     inkscape:pageshadow="2"
     inkscape:zoom="0.35"
     inkscape:cx="116.88991"
     inkscape:cy="-276.67982"
     inkscape:document-units="px"
     inkscape:current-layer="layer1"
     showgrid="false"
     inkscape:window-width="1300"
     inkscape:window-height="746"
     inkscape:window-x="-8"
     inkscape:window-y="-8"
     inkscape:window-maximized="1"
     fit-margin-top="0"
     fit-margin-left="0"
     fit-margin-right="0"
     fit-margin-bottom="0" />
  <metadata
     id="metadata5942">
    <rdf:RDF>
      <cc:Work
         rdf:about="">
        <dc:format>image/svg+xml</dc:format>
        <dc:type
           rdf:resource="http://purl.org/dc/dcmitype/StillImage" />
        <dc:title></dc:title>
      </cc:Work>
    </rdf:RDF>
  </metadata>
  <g
     inkscape:label="Layer 1"
     inkscape:groupmode="layer"
     id="layer1"
     transform="translate(-258.11009,-226.18481)">
    <path
       style="fill:#100f0d;fill-opacity:1;fill-rule:evenodd;stroke:none"
       id="path558"
       inkscape:connector-curvature="0"
       d="m 380.72759,247.33236 0.8975,0.97625 0.89375,0.89 0.9875,0.97625 1.165,0.8875 1.16625,0.8 1.255,0.80125 1.3425,0.71 1.345,0.6225 1.43625,0.5325 1.5225,0.44375 1.52375,0.2675 1.6125,0.26375 1.7025,0 1.61375,-0.0875 1.7025,-0.17625 1.79375,-0.44625 3.1375,-1.2425 2.51,-1.86625 1.79125,-2.13125 1.255,-2.39875 0.8075,-2.39875 0.3575,-2.31125 0.09,-2.04375 -0.26875,-1.68875 -0.44875,-1.50875 -0.80625,-1.6875 -1.165,-1.77875 -1.435,-1.77625 -1.79125,-1.68875 -2.1525,-1.51 -2.5975,-1.2425 -2.86875,-0.88875 -1.075,-0.1775 -1.165,-0.1775 -1.16625,-0.0913 -1.255,0 -1.165,0.0913 -1.255,0.0875 -1.255,0.1775 -1.255,0.1775 -1.255,0.355 -1.34375,0.35625 -1.25625,0.355 -1.25375,0.5325 -1.25625,0.535 -1.2525,0.62 -1.25625,0.7125 -1.165,0.79875 -1.7925,1.42125 -1.79125,1.6 -1.70375,1.95375 -1.7925,1.95625 -1.70375,2.13125 -1.70375,2.13375 -1.6125,2.13 -1.61375,1.955 -1.61375,1.77875 -1.61375,1.5975 -1.5225,1.2425 -1.43375,0.89125 -1.43375,0.44375 -1.34625,0 -1.34375,-0.62125 -1.255,-1.24625 -0.35875,0.35625 0.53875,0.445 0.5375,0.445 0.6275,0.4425 0.71625,0.355 0.7175,0.26875 0.89625,0.1775 0.89625,0.0875 0.98625,-0.17875 1.165,-0.265 1.16625,-0.5325 1.255,-0.8 1.345,-0.9775 1.43125,-1.33125 1.525,-1.68875 1.7025,-1.95625 1.70375,-2.39875 1.075,-1.42 0.98625,-1.4225 0.985,-1.245 1.07625,-1.15375 0.9875,-1.06625 0.985,-0.97625 0.89625,-0.89 0.9875,-0.79875 1.16375,-0.88875 1.165,-0.88875 1.07625,-0.7125 1.165,-0.62125 0.98625,-0.62125 1.07375,-0.44375 0.98625,-0.445 1.0775,-0.35375 0.895,-0.35625 0.98625,-0.17875 0.89625,-0.265 0.80625,-0.09 0.89625,-0.1775 0.7175,0 0.8075,-0.0887 1.7025,0 1.07625,0.0887 1.25375,0.1775 1.16625,0.17875 1.25375,0.355 1.255,0.44375 1.34625,0.445 1.2525,0.62125 1.16625,0.71 1.165,0.89 1.075,0.8875 1.075,1.15625 0.80875,1.155 0.805,1.33125 0.6275,1.51125 0.45,1.68875 0.26875,2.84375 -0.26875,2.48625 -0.8975,2.22125 -1.25625,1.865 -1.52375,1.59875 -1.70125,1.24625 -1.70375,0.8875 -1.6125,0.62125 -0.8075,0.1775 -0.89625,0.2675 -0.98625,0.1775 -1.075,0.1775 -1.16625,0.1775 -2.50875,0 -1.34375,-0.1775 -1.435,-0.1775 -1.52375,-0.445 -1.52375,-0.4425 -1.61375,-0.71125 -1.61375,-0.8875 -1.7025,-1.0675 -1.79375,-1.33125 -1.79125,-1.51125 0,0" />
    <path
       style="fill:#100f0d;fill-opacity:1;fill-rule:evenodd;stroke:none"
       id="path560"
       inkscape:connector-curvature="0"
       d="m 327.21634,234.62611 -0.895,-0.97625 -0.89625,-0.89 -0.98625,-0.97625 -1.165,-0.8875 -1.16625,-0.80125 -1.255,-0.8 -1.34375,-0.71125 -1.345,-0.62125 -1.4325,-0.5325 -1.52375,-0.44375 -1.525,-0.355 -1.6125,-0.1775 -1.70375,-0.09 -1.61375,0.09 -1.7025,0.1775 -1.79125,0.4425 -3.1375,1.33375 -2.51,1.7775 -1.79375,2.22 -1.255,2.4 -0.80625,2.39875 -0.35875,2.31 -0.09,2.13375 0.27,1.685 0.4475,1.51125 0.8075,1.68875 1.165,1.77625 1.43375,1.7775 1.7925,1.68875 2.15125,1.42125 2.6,1.2425 2.8675,0.80125 1.07625,0.17625 1.165,0.17875 1.165,0.0875 2.42,0 1.255,-0.0875 1.25375,-0.17875 1.255,-0.17625 1.255,-0.35625 1.25625,-0.355 1.255,-0.355 1.25375,-0.5325 1.25375,-0.535 1.255,-0.62125 1.255,-0.71 1.16625,-0.80125 1.7925,-1.42 1.7925,-1.60125 1.7925,-1.9525 1.70375,-1.95625 1.7025,-2.1325 1.70375,-2.1325 1.70375,-2.13125 1.61125,-1.95375 1.61375,-1.77875 1.61375,-1.5975 1.52375,-1.24375 1.43375,-0.88875 1.435,-0.445 1.345,0.0887 1.3425,0.6225 1.255,1.2425 0.35875,-0.35625 -0.5375,-0.44125 -0.53625,-0.535 -0.6275,-0.355 -0.71875,-0.44375 -0.805,-0.2675 -0.80875,-0.1775 -0.98625,0 -0.985,0.0887 -1.075,0.26625 -1.16625,0.53375 -1.25375,0.8 -1.345,1.065 -1.4325,1.33375 -1.525,1.6875 -1.7025,1.95625 -1.705,2.39875 -1.07375,1.42125 -0.98625,1.33375 -0.98625,1.24375 -1.075,1.155 -0.985,1.065 -0.9875,0.975 -0.895,0.97875 -0.98625,0.8 -1.16625,0.88875 -1.16625,0.8 -1.07375,0.71 -1.1675,0.71125 -0.985,0.5325 -1.075,0.44625 -1.075,0.44125 -0.985,0.35625 -0.8975,0.2675 -0.985,0.2675 -0.8975,0.1775 -0.89625,0.1775 -0.80625,0.0875 -0.8075,0.09 -0.80625,0.0875 -1.70375,0 -1.075,-0.0875 -1.165,-0.1775 -1.255,-0.1775 -1.25625,-0.3575 -1.2525,-0.355 -1.255,-0.5325 -1.255,-0.62125 -1.16625,-0.71 -1.16625,-0.8 -1.07375,-0.97875 -1.07625,-1.065 -0.80625,-1.24375 -0.8075,-1.33375 -0.6275,-1.51125 -0.4475,-1.6875 -0.2675,-2.84375 0.2675,-2.4875 0.89625,-2.22 1.255,-1.86625 1.52375,-1.59875 1.61375,-1.245 1.70125,-0.88875 1.61375,-0.62 0.8075,-0.26875 0.89625,-0.17625 0.9875,-0.17875 1.07375,-0.17625 1.16625,-0.17875 1.165,-0.0888 1.34375,0.0888 1.345,0.0888 1.435,0.26625 1.52375,0.355 1.5225,0.53375 1.615,0.71125 1.70125,0.8875 1.70375,1.0675 1.7925,1.33375 1.79125,1.50875 0,0" />
    <path
       style="fill:#100f0d;fill-opacity:1;fill-rule:evenodd;stroke:none"
       id="path562"
       inkscape:connector-curvature="0"
       d="m 336.80759,250.97361 0.44875,0.62375 0.5375,0.4425 0.6275,0.355 0.62625,0.17875 0.62875,0 0.71625,-0.17875 0.71875,-0.265 0.7175,-0.445 0.985,-0.80125 1.43375,-1.1525 1.6125,-1.51125 1.79375,-1.6875 1.7925,-1.86625 1.79125,-1.77625 1.61375,-1.86625 1.345,-1.6 1.8825,-2.22 1.7925,-1.95625 1.61375,-1.5975 1.43375,-1.245 1.435,-1.0675 1.16375,-0.7975 1.1675,-0.62125 1.07375,-0.35625 0.8975,-0.1775 0.895,0 0.8075,0.0875 0.71625,0.17875 0.62875,0.355 0.6275,0.355 0.5375,0.445 0.4475,0.445 -0.36,0.355 -1.07375,-0.97875 -1.165,-0.355 -1.345,0.0887 -1.43375,0.6225 -1.525,0.9775 -1.61375,1.33375 -1.61125,1.5975 -1.70375,1.7775 -1.7925,1.955 -1.79375,2.04375 -1.7925,2.04375 -1.7925,2.04375 -1.7025,1.95375 -1.7925,1.775 -1.6125,1.51125 -1.61375,1.24625 -0.7175,0.4425 -0.98625,0.62375 -1.165,0.5325 -1.345,0.355 -1.345,0.1775 -1.34375,-0.1775 -1.34375,-0.6225 -1.0775,-1.15375 0.53875,-0.44625 0,0" />
    <path
       style="fill:#100f0d;fill-opacity:1;fill-rule:evenodd;stroke:none"
       id="path564"
       inkscape:connector-curvature="0"
       d="m 260.17384,240.22361 3.9425,-0.0875 4.3925,-0.09 4.66,0 5.02,-0.0888 5.2875,-0.0887 5.55625,0 5.82875,-0.09 18.6425,0 6.5425,-0.0888 34.06,0 6.9025,0.0888 27.1575,0 6.5425,0.09 12.72875,0 6.09625,0.0887 5.825,0 5.6475,0.0888 5.3775,0 5.10875,0.09 4.75125,0 4.3925,0.0875 4.66,0 0.5375,0.1775 0.35875,0.1775 0.17875,0.1775 0.09,0.1775 -0.26875,0.17875 -0.5375,0.0888 -0.89625,0.09 -5.4675,0.0888 -5.73625,0.0887 -6.005,0.0875 -6.185,0.0913 -6.45375,0.0875 -48.49125,0 -7.08,-0.0875 -14.25375,0 -6.98875,-0.0913 -6.9025,-0.0875 -6.72375,0 -6.6325,-0.0887 -6.45375,0 -6.27375,-0.0888 -11.92125,0 -5.46625,-0.09 -29.04125,0 -2.50875,0.09 -0.80875,0 -0.6275,-0.09 -0.44625,-0.1775 -0.18125,-0.2675 0.09,-0.1775 0.36,-0.1775 0.62625,-0.0875 0.9875,-0.09 0,0" />
    <path
       style="fill:#100f0d;fill-opacity:1;fill-rule:evenodd;stroke:none"
       id="path566"
       inkscape:connector-curvature="0"
       d="m 326.94759,250.88361 0.71875,-0.17625 0.53625,0.7125 0.5375,0.5325 0.54,0.35625 0.6275,0.17625 0.71625,0.0887 0.71625,-0.0887 0.7175,-0.355 0.80625,-0.445 0.98625,-0.80125 1.43375,-1.1525 1.6125,-1.51125 1.79375,-1.6875 1.79375,-1.86625 1.79125,-1.77625 1.61375,-1.86625 1.43375,-1.6 1.88375,-2.22 1.7025,-1.95625 1.61375,-1.5975 1.52375,-1.245 1.345,-1.0675 1.25375,-0.7975 1.075,-0.62125 1.075,-0.35625 0.98625,-0.1775 0.8075,0 0.805,0.0875 0.71875,0.17875 0.7175,0.355 0.5375,0.355 0.53625,0.445 0.5375,0.445 -0.35625,0.355 -1.07625,-0.97875 -1.165,-0.355 -1.345,0.0887 -1.43375,0.6225 -1.52375,0.9775 -1.61375,1.33375 -1.70375,1.5975 -1.70125,1.7775 -1.79375,1.955 -1.7925,2.04375 -1.7025,2.04375 -1.79375,2.04375 -1.7925,1.95375 -1.7025,1.775 -1.6125,1.51125 -1.61375,1.24625 -0.8075,0.4425 -0.985,0.62375 -1.255,0.5325 -1.435,0.4425 -1.43375,0.09 -1.43375,-0.2675 -1.255,-0.7975 -1.16625,-1.425 0,0" />
    <path
       style="fill:#100f0d;fill-opacity:1;fill-rule:evenodd;stroke:none"
       id="path568"
       inkscape:connector-curvature="0"
       d="m 345.86009,250.97361 0.53875,0.62375 0.5375,0.4425 0.5375,0.355 0.6275,0.17875 0.7175,0 0.6275,-0.17875 0.80625,-0.265 0.71625,-0.445 0.98625,-0.80125 1.43625,-1.1525 1.61375,-1.51125 1.79,-1.6875 1.79375,-1.86625 1.7925,-1.77625 1.61375,-1.86625 1.345,-1.6 1.8825,-2.22 1.79125,-1.95625 1.61375,-1.5975 1.43375,-1.245 1.43375,-1.0675 1.16625,-0.7975 1.16375,-0.62125 1.0775,-0.35625 0.89625,-0.1775 0.895,0 0.8075,0.0875 0.7175,0.17875 0.62625,0.355 0.6275,0.355 0.5375,0.445 0.44875,0.445 -0.35875,0.355 -1.07375,-0.97875 -1.16625,-0.355 -1.34375,0.0887 -1.43625,0.6225 -1.5225,0.9775 -1.61375,1.33375 -1.7025,1.5975 -1.70375,1.7775 -1.7025,1.955 -1.79375,2.04375 -1.7925,2.04375 -1.79125,2.04375 -1.70375,1.95375 -1.7925,1.775 -1.61375,1.51125 -1.61375,1.24625 -0.715,0.4425 -0.98625,0.62375 -1.16625,0.5325 -1.34375,0.355 -1.345,0.1775 -1.34625,-0.1775 -1.3425,-0.6225 -1.07625,-1.15375 0.4475,-0.44625 0,0" />
  </g>
</svg>
